<svg width="375" height="812" viewBox="0 0 375 812" fill="none" xmlns="http://www.w3.org/2000/svg">
<path opacity="0.04" fill-rule="evenodd" clip-rule="evenodd" d="M-239.961 450.615L141.602 413.48C141.453 411.947 141.366 410.291 141.366 408.5C141.366 406.709 141.453 405.053 141.602 403.519L-239.961 366.385C-241.31 380.241 -242 394.29 -242 408.5C-242 422.71 -241.31 436.759 -239.961 450.615ZM-223.612 283.78L143.285 394.94C144.105 392.234 145.201 389.585 146.582 387.007L-191.361 205.999C-204.534 230.592 -215.382 256.617 -223.612 283.78ZM-144.521 136.024L151.689 379.395C153.697 376.951 155.951 374.697 158.395 372.689L-84.976 76.4793C-106.711 94.3375 -126.662 114.288 -144.521 136.024ZM-15.0009 29.6385L166.008 367.582C168.585 366.201 171.234 365.105 173.94 364.285L62.7805 -2.6117C35.6175 5.61792 9.59247 16.4659 -15.0009 29.6385ZM145.385 -18.9615L182.52 362.602C184.053 362.453 185.709 362.366 187.5 362.366C189.291 362.366 190.947 362.453 192.481 362.602L229.615 -18.9615C215.759 -20.3099 201.71 -21 187.5 -21C173.29 -21 159.241 -20.3099 145.385 -18.9615ZM312.22 -2.61172L201.06 364.285C203.766 365.105 206.415 366.201 208.993 367.582L390.001 29.6385C365.408 16.4659 339.383 5.6179 312.22 -2.61172ZM459.976 76.4793L216.605 372.689C219.049 374.697 221.303 376.951 223.311 379.395L519.521 136.024C501.662 114.288 481.712 94.3376 459.976 76.4793ZM566.362 205.999L228.418 387.007C229.799 389.585 230.895 392.234 231.715 394.94L598.612 283.78C590.382 256.617 579.534 230.592 566.362 205.999ZM614.961 366.385L233.398 403.519C233.547 405.053 233.634 406.709 233.634 408.5C233.634 410.291 233.547 411.947 233.398 413.48L614.961 450.615C616.31 436.759 617 422.71 617 408.5C617 394.29 616.31 380.241 614.961 366.385ZM598.612 533.219L231.715 422.06C230.895 424.766 229.799 427.415 228.418 429.992L566.361 611.001C579.534 586.408 590.382 560.382 598.612 533.219ZM519.521 680.976L223.311 437.605C221.303 440.049 219.049 442.303 216.605 444.311L459.976 740.521C481.712 722.662 501.662 702.711 519.521 680.976ZM390.001 787.361L208.993 449.418C206.415 450.799 203.766 451.895 201.06 452.715L312.22 819.612C339.383 811.382 365.408 800.534 390.001 787.361ZM229.615 835.961L192.481 454.398C190.947 454.547 189.291 454.634 187.5 454.634C185.709 454.634 184.053 454.547 182.52 454.398L145.385 835.961C159.241 837.31 173.29 838 187.5 838C201.71 838 215.759 837.31 229.615 835.961ZM62.7805 819.612L173.94 452.715C171.234 451.895 168.585 450.799 166.008 449.418L-15.0009 787.361C9.59247 800.534 35.6174 811.382 62.7805 819.612ZM-84.976 740.521L158.395 444.311C155.951 442.303 153.697 440.049 151.689 437.605L-144.521 680.976C-126.662 702.711 -106.711 722.662 -84.976 740.521ZM-191.361 611.001L146.582 429.992C145.201 427.415 144.105 424.766 143.285 422.06L-223.612 533.22C-215.382 560.383 -204.534 586.408 -191.361 611.001Z" fill="url(#paint0_radial_13_24763)"/>
<defs>
<radialGradient id="paint0_radial_13_24763" cx="0" cy="0" r="1" gradientUnits="userSpaceOnUse" gradientTransform="translate(187.5 408.5) rotate(90) scale(429.5)">
<stop offset="0.541667" stop-color="#FFD05B"/>
<stop offset="1" stop-color="#FA5798" stop-opacity="0"/>
</radialGradient>
</defs>
</svg>
